<svg id="icons" height="512" viewBox="0 0 500 500" width="512" xmlns="http://www.w3.org/2000/svg" xmlns:xlink="http://www.w3.org/1999/xlink"><linearGradient id="linear-gradient" gradientUnits="userSpaceOnUse" x1="328.34" x2="328.34" y1="40.898" y2="93.036"><stop offset="0" stop-color="#9e5b7a"/><stop offset="1" stop-color="#723d5a"/></linearGradient><linearGradient id="linear-gradient-2" gradientUnits="userSpaceOnUse" x1="42.707" x2="45.028" y1="182.198" y2="235.571"><stop offset="0" stop-color="#a4c6b5"/><stop offset="1" stop-color="#768e8e"/></linearGradient><linearGradient id="linear-gradient-3" gradientUnits="userSpaceOnUse" x1="337.802" x2="367.91" y1="356.045" y2="469.132"><stop offset="0" stop-color="#e05a9d"/><stop offset="1" stop-color="#d84385"/></linearGradient><linearGradient id="linear-gradient-4" gradientUnits="userSpaceOnUse" x1="273.661" x2="305.237" y1="366.873" y2="454.993"><stop offset="0" stop-color="#a83d68"/><stop offset="1" stop-color="#752a50"/></linearGradient><linearGradient id="linear-gradient-5" x1="339.862" x2="371.438" xlink:href="#linear-gradient-4" y1="343.151" y2="431.271"/><linearGradient id="linear-gradient-6" x1="357.53" x2="389.107" xlink:href="#linear-gradient-4" y1="336.82" y2="424.94"/><linearGradient id="linear-gradient-7" gradientUnits="userSpaceOnUse" x1="98.96" x2="245.999" y1="201.059" y2="245.348"><stop offset="0" stop-color="#ffd3d1"/><stop offset="1" stop-color="#f59f9b"/></linearGradient><linearGradient id="linear-gradient-8" x1="334.963" x2="334.963" xlink:href="#linear-gradient-7" y1="179.277" y2="392.164"/><linearGradient id="linear-gradient-9" x1="326.668" x2="326.668" xlink:href="#linear-gradient-7" y1="142.945" y2="82.907"/><linearGradient id="linear-gradient-10" x1="438.408" x2="459.41" xlink:href="#linear-gradient-7" y1="361.065" y2="257.908"/><linearGradient id="linear-gradient-11" x1="329.944" x2="361.52" xlink:href="#linear-gradient-4" y1="346.705" y2="434.825"/><linearGradient id="linear-gradient-12" x1="234.684" x2="234.684" xlink:href="#linear-gradient-3" y1="175.876" y2="436.199"/><linearGradient id="linear-gradient-13" x1="417.441" x2="417.441" xlink:href="#linear-gradient-3" y1="175.877" y2="436.199"/><linearGradient id="linear-gradient-14" x1="431.284" x2="431.284" xlink:href="#linear-gradient-4" y1="220.274" y2="413.93"/><linearGradient id="linear-gradient-15" gradientUnits="userSpaceOnUse" x1="108.026" x2="90.88" y1="-74.633" y2="419.399"><stop offset="0" stop-color="#936298"/><stop offset="1" stop-color="#6e3b6e"/></linearGradient><linearGradient id="linear-gradient-16" x1="409.11" x2="409.11" xlink:href="#linear-gradient-4" y1="220.427" y2="413.844"/><linearGradient id="linear-gradient-17" x1="430.785" x2="451.787" xlink:href="#linear-gradient-7" y1="359.513" y2="256.356"/><linearGradient id="linear-gradient-18" x1="234.327" x2="234.327" xlink:href="#linear-gradient-4" y1="220.274" y2="413.93"/><linearGradient id="linear-gradient-19" gradientUnits="userSpaceOnUse" x1="73.864" x2="83.561" y1="241.58" y2="313.132"><stop offset="0" stop-color="#d194ed"/><stop offset="1" stop-color="#b880d3"/></linearGradient><linearGradient id="linear-gradient-20" x1="92.917" x2="100.608" xlink:href="#linear-gradient-19" y1="271.485" y2="328.24"/><linearGradient id="linear-gradient-21" x1="83.191" x2="90.882" xlink:href="#linear-gradient-19" y1="220.601" y2="277.357"/><linearGradient id="linear-gradient-22" x1="123.556" x2="131.247" xlink:href="#linear-gradient-19" y1="230.296" y2="287.052"/><linearGradient id="linear-gradient-23" x1="60.255" x2="65.644" xlink:href="#linear-gradient-19" y1="233.146" y2="272.912"/><path d="m382.64 98.076c-6.429-7.747-5.255-21.511-3.449-30.811a29.973 29.973 0 0 0 .091-10.993l-4.914-11.694a85.516 85.516 0 0 0 -20.018-19.59 6.427 6.427 0 0 0 -5.12-.971c-11.194 2.576-22.337 10.707-22.337 10.707s-11.142-8.131-22.336-10.707a6.43 6.43 0 0 0 -5.121.971 85.516 85.516 0 0 0 -20.018 19.59l-4.237 8.779a29.854 29.854 0 0 0 -.586 13.908c1.362 7.012 2.364 16.561.02 24.156 13.441 31.496 88.07 29.841 108.025 6.655z" fill="url(#linear-gradient)"/><path d="m385.864 124.68c22.47 2.07 24.732-13.754 24.159-23.089a2.052 2.052 0 0 0 -3.648-1.155c-2.842 3.52-8.388 6.621-18.723 1.574a18.577 18.577 0 0 1 -9.298-14.01s-28.1 2.668-49.091-29.891a2.942 2.942 0 0 0 -4.986.236c-5.809 9.992-20.914 31.179-48.672 28.582-2.24 17.811-21.063 21.994-28.193 13.505a2.055 2.055 0 0 0 -3.648 1.155c-.574 9.335 1.688 25.159 24.158 23.089 0 0-11.127 21.466 12.885 32.964a2.058 2.058 0 0 0 2.855-2.462c-2.262-7.348-3.662-21.824 18.048-26.411h50.366c21.712 4.587 20.315 19.063 18.049 26.415a2.057 2.057 0 0 0 2.854 2.462c24.012-11.498 12.885-32.964 12.885-32.964z" fill="#5e3853"/><path d="m22.342 156.9s-3.982 20.554 11.976 27.07c0 0-5.088-.5-12.966 7.362 0 0 10.423 19.614 32.581 3.037 15.181-11.357 10.121-24.281 6.121-32.328 0 0-7.892.839-11.928 12.368 0 0-3.469-18.064-25.784-17.509z" fill="url(#linear-gradient-2)"/><path d="m259.845 382.238s32.221 92.486 161.1 78.166l11.934-66.232-38.779-48.928-125.57 10.113z" fill="url(#linear-gradient-3)"/><path d="m259.845 382.238s6.525 18.709 25.423 37.994a283.731 283.731 0 0 0 5.331-60.009s-1.906-2.751-4.528-6.279l-17.542 1.413z" fill="url(#linear-gradient-4)"/><path d="m427.047 437.259c-110.347 22.348-135.311-67.949-135.311-67.949h25.182s14.082 67.949 110.129 56.432z" fill="url(#linear-gradient-5)"/><path d="m418.01 407.155c-59.314 10.6-84.91-30.938-84.91-30.938l20.54-6.231s22.124 34.962 64.37 28.039z" fill="url(#linear-gradient-6)"/><path d="m199.33 244.581s-2.867-14.208-19.866-36.672c-10.508-13.885-19.863-31.826-25.476-43.5a22.739 22.739 0 0 0 -19.175-12.841l-22.967-1.347c-8.79-.508-14.638 4.293-19.459 11.114-4.661 5.824 2.416 13.861 8.78 9.974l8.156-4.973s-4.536 13.953 8.214 13.346l20.191-1.321c16.224 28.8 22.767 79.128 38.094 104.408 6.359 6.318 14.133 6.486 22.465 4.23 5.947-14.656 6.733-28.834 1.043-42.418z" fill="url(#linear-gradient-7)"/><path d="m187.294 284.654s-5.077 2.291-11.468-1.891c4.56 10.065 17.027 14.487 26.076 7.4l18.847-14.563-.911-49.481-20.508 18.462s.735 30.43-12.036 40.073z" fill="#e07a86"/><path d="m362.7 175.411-12.471 3.255s-.73-3.421-1.592-6.72c-7.729-10.559-25.39-15.267-33.067-10.6a35.158 35.158 0 0 1 -5.852 18.668c-7.159.207-15.264.143-21.264-4.288-13.79-8.493-26.621-2.289-36.537 12.261l6.644 163.1s74.5 37.876 128.31-8.3c0 0-9.719-75.746 31.14-151.485-6.523-12.151-17.858-32.422-39.738-22.964-4.987 2.307-9.766 6.595-15.573 7.073z" fill="url(#linear-gradient-8)"/><path d="m258.56 351.092a142.383 142.383 0 0 0 22.533 8.472c14.306-68.825-15.415-111.992-20.071-174.844l-8.289 23.324z" fill="#e07a86"/><path d="m381.522 345.244c.055.137 2.7-.178 5.348-2.45 0 0-9.719-75.746 31.14-151.485 0 0-.806-1.607-2.294-4.137-5.283-1.485-8.853-2.452-8.853-2.452s-61.011 71.78-25.341 160.524z" fill="#e07a86"/><path d="m348.638 171.946a90.335 90.335 0 0 1 -2.048-31.794l-33.219 3.655a54.012 54.012 0 0 1 2.193 17.54c6 5.869 21.296 11.316 33.074 10.599z" fill="#e07a86"/><path d="m358.161 106.687-.9 18.261a27.037 27.037 0 0 1 -5.41 14.981c-3.8 5.25-17.1 18.35-27.157 14.812-8.518-3.445-24.963-12.963-26.664-26.179a151.61 151.61 0 0 1 -2.858-22.527l33.017-23.648z" fill="url(#linear-gradient-9)"/><path d="m327.188 67.175c-9 17.056-20.979 23.963-27.354 26.572-5.085 1.927-5 7.712-4.655 12.288 7.863-1.365 25.811-7.474 32.009-19.21 0 0 12.923 16.615 30.973 19.862.257-4.961 1.328-10.3-4.129-12.927-22.132-10.608-26.844-26.585-26.844-26.585z" fill="#e07a86"/><path d="m427.047 287.66c4.506 10.14 10.825 20.7 19.242 27.091l28.279-2.085a199.215 199.215 0 0 1 -15.759-37.289c-1.477-4.769-2.706-8.9-3.752-12.631-11.316-1.026-23.773 11.483-28.01 24.914z" fill="url(#linear-gradient-10)"/><path d="m447.129 220.978-29.119 39.23a151.87 151.87 0 0 0 9.039 27.451c6.678-7.788 16.291-17.439 28.009-24.914-4.184-14.928-5.458-23.578-7.929-41.767z" fill="#e07a86"/><path d="m269.872 343.938s68.471 36.25 116.356-15.215l13.426 27.614s-62.654 51.944-131.125 3.886z" fill="url(#linear-gradient-11)"/><path d="m262.074 176.967s-6.782 30.188 7.584 86.1-.389 143.266-.389 143.266-5.09 26.392 1.413 47.387c-5.469 20.563-26.014-.523-51.313-34.743-24.7-13.217-30.39-32.986-22.833-57.319 6.629-18.192 14.069-47.866 14.5-90.049l1.392-42.444c.813-11.858 7.878-18.3 19.574-24.724 0 0-1.959-19.619 17.838-31.443 4.518-2.623 9.849-1.137 12.234 3.969z" fill="url(#linear-gradient-12)"/><path d="m410.449 177.857c-14.1 25.822-53.2 112.04-16.621 182.366l10.7-11.122c-7.774-26.189-1.877-58.149 44.5-103.383a21.224 21.224 0 0 0 7.129-17.893c-.779-7.519-4.633-17.168-16.814-25.968a15.953 15.953 0 0 1 -6.223-9.721c-.95-4.585-3-10.891-7.406-15.989a9.357 9.357 0 0 0 -15.265 1.71z" fill="url(#linear-gradient-13)"/><path d="m401.891 367.21s36.29 58.308 7.826 102.2a3.488 3.488 0 0 0 3.953 5.206c12.555-3.722 33.909-15.526 36.106-52.85 0 0 8.056-2.493 10.573-17.333a24.037 24.037 0 0 0 -13-25.292c-10.551-5.373-25.483-14.329-37.25-26.7z" fill="url(#linear-gradient-14)"/><path d="m140.738 290.387c4.636-2.386 8.161-7.08 8.378-14.112a16.11 16.11 0 0 0 -5.289-12.032 18.409 18.409 0 0 0 2.406-8.864c-.41-13.339-12.061-18.767-21.62-16.286a16.785 16.785 0 0 0 2.677-8.908c-.643-20.89-30.971-20.9-31.616 0 .007.237.038.456.052.687-7.886-2.971-17.865-.261-21.909 8.13-8.27-5.408-21.939-1.493-22.349 11.778.165 5.36 2.5 9.191 5.762 11.5-7.588.161-15.065 5.35-15.381 15.592.189 6.151 2.971 10.47 6.8 12.985-4.891 1.647-8.89 5.947-9.1 12.919.278 9.061 6.948 13.62 13.664 13.687a20.453 20.453 0 0 0 -.267 2.624c.363 11.788 9.934 17.08 18.589 15.9a13.444 13.444 0 0 0 12.144 11.7c2.618 18.879 31.092 18.164 31.72-2.173a19.689 19.689 0 0 0 -.413-3.449c8.212.317 16.695-5.485 16.009-16.563a18.2 18.2 0 0 0 -1.055-4.256c9.132 1.953 19.862-3.36 20.252-15.972-.239-7.634-4.278-12.592-9.454-14.887z" fill="url(#linear-gradient-15)"/><path d="m400.96 347.528c-8.976-27.444-24.979-84.626 22.289-138.317 1.7-1.93 4.9-.379 3.8 1.982-12.893 27.57-31.083 69.043-22.821 135.927.258 2.099-2.611 2.415-3.268.408z" fill="url(#linear-gradient-16)"/><path d="m436.843 311.517a82.891 82.891 0 0 0 -8.333 8.579c-10.692 13.493-24.9 23.424-32.9 29.767a15.467 15.467 0 0 0 -5.64 14.6l3.634 22.41a6.122 6.122 0 0 0 8.665 4.553 12.007 12.007 0 0 0 6.821-9.793l1.9-21.412s19.632-10 57.834-22.832c10.846-3.815 12.431-16.024 5.749-24.725-.005.002-22.234-16.035-37.73-1.147z" fill="url(#linear-gradient-17)"/><path d="m278.614 468.69a41.179 41.179 0 0 1 -7.929-14.975c-26.955-7.817-49.516-30.992-39.993-57.449a295.879 295.879 0 0 0 16.558-68.076c3.8-31.5-6.37-85.527-12.687-114.619a1.7 1.7 0 0 0 -3.352.453c1.61 28.755 3.919 80.656 1.423 107.2-2.074 22.059-8.839 48.088-17.7 74.347-19.66-7.359-18.864-19.073-18.4-33.916-1.492 4.094-2.943 7.612-4.263 10.555-12.256 25.115 15.052 51.748 25.359 53.534a57.691 57.691 0 0 0 25.253 36.893c11.54 7.311 23.877 10.451 32.583 11.8a3.486 3.486 0 0 0 3.148-5.747z" fill="url(#linear-gradient-18)"/><path d="m83.224 267.946c.51 7.555-10.539 8.581-11.429 1.063-.51-7.555 10.539-8.581 11.429-1.063z" fill="url(#linear-gradient-19)"/><path d="m100.341 292.4c.4 5.992-8.36 6.806-9.066.842-.404-5.993 8.36-6.807 9.066-.842z" fill="url(#linear-gradient-20)"/><path d="m90.615 241.515c.4 5.993-8.36 6.806-9.066.843-.404-5.993 8.36-6.806 9.066-.843z" fill="url(#linear-gradient-21)"/><path d="m130.98 251.21c.4 5.993-8.359 6.806-9.066.843-.404-5.993 8.36-6.806 9.066-.843z" fill="url(#linear-gradient-22)"/><path d="m65.457 247.8a3.19 3.19 0 0 1 -6.353.591 3.19 3.19 0 0 1 6.353-.591z" fill="url(#linear-gradient-23)"/><g fill="#2b2a3a"><path d="m18.041 193.092c4.522 8.493 17.178 16.158 31.289 8.563a42.759 42.759 0 0 0 11.455 8.7c3.074 7.734 9.875 15.077 16.2 19.8a19.688 19.688 0 0 0 -3.879 4.2 17.84 17.84 0 0 0 -6.385-1.544c-14.988-9.466-34.74-4.355-35.46-4.124a3.75 3.75 0 0 0 1.976 7.235c.137-.038 11.328-3.006 22.241.079-8.125 5.241-10.312 17.828-4.2 25.518-10.832 3.869-14.9 18.581-7.292 27.438-14.17 8.978-8.721 31.03 8.052 32.328a17.819 17.819 0 0 0 14.224 18.359 17.858 17.858 0 0 0 15.3 11.12c5.242 18.875 32.577 16.824 34.89-2.706 13.065 1.807 23.039-11.248 19.295-23.522 17.792.1 25.429-23 11.29-33.527 8.165-7.244 7.566-21.551-1.267-28.158 8.009-12.172-1.773-29.428-16.432-28.685 4.518-13.542-8.114-27.893-22.141-25v-29.796c1.581 2.024 4.685 4.325 10.6 4.05l17.763-1.162a165.677 165.677 0 0 1 12.208 30.842c8.415 31.289 17.6 62.155 27.713 76.029 7.513 10.3 21.927 10.761 31.042 2.2-2.706 40.315-11.907 66.5-17.673 79.345-12.1 24.39 10.592 52.477 25.593 57.936 8.443 37.794 49.515 50.817 72.4 50.581a3.758 3.758 0 0 0 2.018-7.078c-21.271-11.072-18.206-48.518-16.528-61.041 17 25.724 70.159 60.371 135.529 54.195a62.807 62.807 0 0 1 -6.147 8.628 3.776 3.776 0 0 0 2.982 6.171c21.315-1.317 46.308-18.894 48.673-55.917 14.469-9.876 16.115-38.373-4.32-48.35a153.14 153.14 0 0 1 -26.334-16.858c9.384-4.109 25.266-10.6 47.3-17.994 11.667-4.241 15.99-16.7 9.063-27.588-3.815-7.516-11.752-23.156-16.684-39.09a271.208 271.208 0 0 1 -7.728-29.109c11.236-15.31 4.48-35.318-17.13-49.023-.539-10-9.9-36.247-27.416-23.734-9.9-12.392-27.766-12.966-40.074-3.709-4.375 3.347-12.11 3.414-17.236 4.218a81.257 81.257 0 0 1 -2.964-25.016c4.012-4.037 7.056-7.861 9.054-12.973 12.026 5.236 8.826 17.822 6.179 22.858a3.778 3.778 0 0 0 3.3 5.53c17.588-4.656 27.149-19.462 22.845-34.724 23.786-.536 24.266-24.467 21.493-34.463-.874-3.742-6.448-3.646-7.282.086-.011.042-1.088 4.337-4.617 6-2.812 1.322-6.687.8-11.519-1.565-9.838-4.805-8.248-21.271-6.424-30.66a33.662 33.662 0 0 0 -.313-14.248c3.031.913 6.079 4.677 8.936 1.016 3.226-5.426-5.834-8.031-9.293-8.889a16.4 16.4 0 0 0 2.717-3.737c2.022-4.488-4.586-7.667-6.765-3.236a11.459 11.459 0 0 1 -1.716 2.175 87.464 87.464 0 0 0 -22.433-20.788c-7.349-2.353-24.46 8.159-27.113 9.909-2.552-1.7-19.826-12.285-27.112-9.909a87.548 87.548 0 0 0 -21.929 20.122c-2.452-2.226-.872-6.768.363-8.181 2.933-3.941-2.841-8.421-5.928-4.594a17.021 17.021 0 0 0 -3.122 7.41c-1.861-1.385-2.866-2.277-2.907-2.314-3.7-3.25-8.631 2.174-5.044 5.55a77.314 77.314 0 0 0 12.431 8.7 33.442 33.442 0 0 0 -2.734 21.013c1.823 9.388 3.414 25.854-6.425 30.659-8.4 4.369-14.341 2.067-16.129-4.4a3.75 3.75 0 0 0 -7.289-.113c-.178.69-4.264 17 4.314 27.086 3.93 4.619 9.693 7.09 17.18 7.377-4.177 14.917 4.584 28.915 21.572 34.5a3.753 3.753 0 0 0 4.579-5.3c-2.952-5.708-5.745-18.286 7.153-23.312 2.634 7.482 9.108 13.223 15.442 17.337.885 6.009 1.293 16.082-3.641 24.45-5.7.229-12.217-.146-16.823-3.449a25.355 25.355 0 0 0 -27.733-.964 12.087 12.087 0 0 0 -15.2-2.078c-17.4 10.4-19.574 26.209-19.714 32.425-11.2 6.167-20.062 15.867-19.594 28.989l-7.448 6.7c-2.4-6.407-7.667-17.664-18.7-32.245-10.155-13.42-19.247-30.718-25.086-42.867a26.507 26.507 0 0 0 -22.336-14.96l-22.966-1.346c-9.992-.547-17.078 4.648-22.607 12.514-6.138 7.474.861 18.87 10.227 16.857.023.212-.043 36.152.023 36.333a19.571 19.571 0 0 0 -8.451 13.72 19.318 19.318 0 0 0 -6.945.555 3.724 3.724 0 0 0 -1.088-1.1 46.787 46.787 0 0 1 -12.699-12.623 19.028 19.028 0 0 0 11.83-4.389c3.977-3.536 9.144-13.386 1.351-20.3-8.2-7.459-23.178 1.249-24.154 12.733a42.359 42.359 0 0 1 -3.673-3.186c18.848-13.63 10.794-30.967 7.528-37.215a3.751 3.751 0 0 0 -3.755-2.06c-.323.035-6.3.761-11.2 7.373-4.152-6.434-12.268-12.88-26.2-12.535a3.75 3.75 0 0 0 -3.589 3.036c-1.28 6.611-.9 19.053 7.212 26.763a37.5 37.5 0 0 0 -7.169 5.729 3.748 3.748 0 0 0 -.67 4.414zm288.806 165.9c26.627 4.034 54.55-2.627 74.287-20.186a133.647 133.647 0 0 0 6.118 16.41 19.25 19.25 0 0 0 -1.2 5.747c-11.211 6.539-27.913 13.976-47.8 15.646a3.759 3.759 0 0 0 -1.558.117c-18.444 1.629-41.061-3.816-58.491-14.689.252-3.275.483-6.664.687-10.139a133.791 133.791 0 0 0 27.957 7.094zm102.138 31.942a137.363 137.363 0 0 1 4.195 13.148c-24.873 3.689-50.939-4.5-67.685-20.87a124.559 124.559 0 0 0 41.425-14.124l2.982 18.387c1.898 9.783 13.403 10.667 19.083 3.459zm-72.947-6.748c8.074 11.024 40.1 33.829 78.84 27.225a96.211 96.211 0 0 1 1.894 22.05c-48.394 3.892-92.592-15.956-114.194-52.788a102.428 102.428 0 0 0 33.46 3.513zm-62.038 16.442c-.013-.019-.03-.033-.044-.052.935-6.4 2.357-17.114 3.558-30.28a115.772 115.772 0 0 0 14.764 6.971c16.775 36.946 64.505 68.416 123.865 63.739a66.178 66.178 0 0 1 -4.412 16.487c-81.826 6.186-121.395-32.913-137.731-56.865zm171.647-18.147c13.195 6.53 13.865 22.969 6.481 32.783-3.124-11.361-8.066-17.711-8.307-18.016-3.126-3.808-8.875.745-5.877 4.661.056.071 5.591 7.182 8.055 20.09-2.183 34.286-21.226 45.342-32.776 48.894 13.072-20.56 12.774-43.925 8.507-63.385a3.625 3.625 0 0 0 -.532-2.322 137.072 137.072 0 0 0 -8.271-24.353l1.607-18.169.6-.287a157.08 157.08 0 0 0 30.512 20.104zm26.741-65.729c.98 1.932 1.994 3.93 2.146 4.33a10.587 10.587 0 0 1 -6.908 12.754c-38.027 12.768-57.532 22.632-58.343 23.045a3.751 3.751 0 0 0 -2.033 3.011l-1.894 21.413c-.132 3.036-3.536 7.983-6.811 6.691a2.331 2.331 0 0 1 -1.239-1.721l-3.633-22.411a11.725 11.725 0 0 1 4.267-11.064c10.8-8.49 22.47-16.636 33.509-30.376a79.454 79.454 0 0 1 7.992-8.2 18.328 18.328 0 0 1 9.717-4.993c4.822-.893 3.617-8.154-1.272-7.391a25.417 25.417 0 0 0 -6.957 2.261c-6.626-8.41-11.345-19.339-14.278-27.583a168.5 168.5 0 0 1 21.672-25.046c1.554 6.964 3.6 14.357 6.9 25.017 5.123 16.539 13.256 32.563 17.164 40.263zm-63.582-7.87a142.215 142.215 0 0 1 12.722-24.7c3.093 7.763 7.462 16.748 13.222 24.178a85.209 85.209 0 0 0 -9.178 9.406 128.251 128.251 0 0 1 -19.872 19.45c-.6-6.416-.395-16.026 3.105-28.334zm9.312-132.146c8.55-.738 12.074 18.7 11.989 20.56-2.47 3.69-10.307 16.124-17.762 35.755a3.75 3.75 0 0 0 7.012 2.663 186.118 186.118 0 0 1 15.7-32.244c14.608 9.586 24.406 26.735 11.474 39.454a176.216 176.216 0 0 0 -41.036 54.652 226.344 226.344 0 0 1 3.184-23.87 3.75 3.75 0 0 0 -7.37-1.388c-4.227 22.84-5.4 47.122-2.443 70.281-2.286 1.8-4.6 3.445-6.617 5.211-28.464-70.32 12.742-152.13 21.5-168.156a5.6 5.6 0 0 1 4.368-2.918zm-137.9-37.2a23.355 23.355 0 0 0 -1.062 12.956c-10.185-5.772-11.809-16.529-8.5-24.664 2.347-.184 14.817-8.672 8.076-13.2a3.752 3.752 0 0 0 -5.077 1.535 9.427 9.427 0 0 1 -6.183 4.8c-12.6 1.386-19.682-4.348-20-15.322 5.79 3.986 12.237 3.575 20.307-.25 10.624-5.189 14.352-18.979 10.5-38.829a25.929 25.929 0 0 1 2-16.061c2.023.982 4.2 1.952 6.514 2.886a10.138 10.138 0 0 0 -2.49 3.378l6.973 2.763a.941.941 0 0 1 -.057.134c.084-.46 2.467-3.219 9.263-1.81a90.047 90.047 0 0 0 11.362 2.152c4.578-.034 5.084-6.78.516-7.464a96.557 96.557 0 0 1 -27.891-8.4 83.23 83.23 0 0 1 18.063-16.7c10.614 2 22.037 10.246 22.154 10.331a3.753 3.753 0 0 0 4.419 0c.119-.087 11.541-8.332 22.154-10.333a82.7 82.7 0 0 1 19.215 18.2 46.157 46.157 0 0 1 -8.253 3.711 17.766 17.766 0 0 0 .841-4.621c.006-4.926-7.321-5.073-7.5-.138 0 .059-.177 5.845-5.245 7.686-2.7.447-5.639.816-8.862 1.07-4.729.433-4.438 7.434.292 7.489 10.142-.527 23.663-3.789 30.415-7.586a19.151 19.151 0 0 1 2.341-.352 26.047 26.047 0 0 1 1.009 13.671c-3.856 19.85-.128 33.64 10.5 38.829 8.071 3.826 14.515 4.234 20.307.251-.316 10.974-7.394 16.7-19.983 15.321-6.237-1.058-7.472-4.076-7.521-4.2a1.136 1.136 0 0 1 .044.138l-7.2 2.086c.208.722 2.218 6.722 11.53 8.987 3.287 8.126 1.5 18.877-8.548 24.532 2.221-10.243-2.922-20.786-13.835-24.954.2-.258 1.34-25.986 1.425-27.068a33.518 33.518 0 0 0 4.454.36c4.885-.079 4.951-7.342.059-7.5a23.526 23.526 0 0 1 -6.7-1.028c-20.9-8.369-27.463-21.625-28.916-25.258 2.347-8.5 1.788-13.442 1.713-14-.748-4.834-7.936-3.875-7.436.978 0 .043.457 4.272-1.7 11.724-11.345 21.229-27.143 25.345-28.887 25.74l-7.413.779c-4.661.541-4.278 7.435.388 7.479.116 0 3.38-.321 3.6-.357a134.25 134.25 0 0 0 2.561 27.763c-6.86 2.649-11.476 6.803-13.737 12.364zm21.492-11.714c-1.325-6.655-3.341-18.942-2.765-29.735 5.463-1.833 17.738-7.453 27.916-22.97 3.921 6.472 12.062 16.166 27.961 23.131l-1.3 26.518a23.205 23.205 0 0 1 -4.658 12.905c-3.959 5.24-10.743 11.9-20.8 14.378-6.084-2.117-24.894-11.424-26.355-24.229zm-30.92 48.738a17.718 17.718 0 0 1 15.943 2.528 29.26 29.26 0 0 0 16.126 4.679h18.706a3.75 3.75 0 0 0 0-7.5h-5.52a44.982 44.982 0 0 0 3.238-19.879c5.482 2.506 6.4 3.022 8.546 3.311a38.633 38.633 0 0 0 14.533-5.789 85.811 85.811 0 0 0 2.96 20.149l-3.643.619c-4.474.794-3.9 7.422.624 7.447-.43.181 8.541-1.417 8.506-1.39l12.373-1.6c6.144-.464 11.261-4.7 16.7-7.4a20.425 20.425 0 0 1 25.778 7.132c-2.567 4.889-6.441 12.732-10.584 22.74a18.211 18.211 0 0 0 -2.223-5.4c-2.856-4.006-8.936.093-6.207 4.209.034.054 3.388 5.565 1.711 19a272.276 272.276 0 0 0 -8.174 28.989c-22.542 1.333-36.228-4.105-36.444-4.192a3.75 3.75 0 0 0 -2.866 6.93c.567.235 12.281 4.982 32.123 4.982 1.809 0 3.691-.044 5.633-.13-4.386 23.282-5.663 49.217.341 74.692a80.487 80.487 0 0 1 -24.22 15.774 76.006 76.006 0 0 0 7.387-13.355 3.75 3.75 0 1 0 -6.877-2.992c-6.025 13.844-13.039 19.547-14.611 20.7a94.878 94.878 0 0 1 -32.012.936c-11.21-2.982-15.36-16.863-15.341-17-1.376-4.722-8.445-2.8-7.236 1.971a38.821 38.821 0 0 0 5.7 11.514 129.828 129.828 0 0 1 -12.466-4.213c1.27-28.553.2-60.137-7.208-86.727a186.89 186.89 0 0 0 28.452.4 56.145 56.145 0 0 0 -12.983 21.479c-1.312 4.712 5.687 6.861 7.193 2.125 11.594-32.523 31.532-19.7 37.187-42.81a145.062 145.062 0 0 0 2.465-35.389 3.75 3.75 0 1 0 -7.492.333 137.625 137.625 0 0 1 -2.319 33.552 15.34 15.34 0 0 1 -9.214 11.128c-16.951 4.147-39.06 1.98-44.647 1.5a109.186 109.186 0 0 1 6.5-43.721c1.826-4.574-4.933-7.412-6.916-2.9a96.741 96.741 0 0 0 -4.835 16.719c-2.355-22.44-.671-36.289.011-40.524a25.037 25.037 0 0 1 5.301-2.629zm-50.69 41.851a36.61 36.61 0 0 1 8.476-7.661c.7 13.3 2.342 46.064 3.217 75.606a3.75 3.75 0 0 0 7.5-.222c-1.128-38.068-3.529-81.471-3.553-81.9-.079-.943-1.451-17.464 16.017-28.016a4.584 4.584 0 0 1 6.375 1.393c-1.1 6.307-4.432 32.392 5.451 76.251.741 3.287 1.547 6.656 2.442 10.139 22.358 97.931-21.9 163.4 9.263 206.593-23.666-3.338-48.6-18.244-53.931-45.385-2.012-29.064 6.051-55.715 12.194-82.924 1.011-4.8-6.146-6.464-7.315-1.653-5.9 26.045-13.364 51.208-12.637 79.223-11.7-6.933-26.925-27.947-17.907-46.107 6.9-15.375 18.552-49.084 19.086-102.015l1.392-42.444a18.579 18.579 0 0 1 3.93-10.878zm-124.441-50.631a3 3 0 0 1 -.344-4.107l3.047-3.809a15.838 15.838 0 0 1 13.265-5.9l22.966 1.346a19.007 19.007 0 0 1 16.016 10.722c5.987 12.458 15.334 30.229 25.865 44.143 12.6 16.649 17.2 28.642 18.623 33.166l-5.188 4.649c-3.616 3.354 1.281 8.813 5 5.586 3.332-2.983 10.039-9 13.349-11.987-.271 7.38-1.057 32.961-1.22 39.865l-7.433 5.74c-5.4 4.366-14.088 3.235-18.069-2.478-15.4-19.791-23.725-78.376-40.506-108.127a3.753 3.753 0 0 0 -3.551-1.971l-20.125 1.317c-4.976.532-5.533-2.918-4.854-6.783a21.8 21.8 0 0 1 6.45-1.22c4.924-.082 4.932-7.417 0-7.5a29.688 29.688 0 0 0 -11.584 2.7l-8.152 4.968a2.98 2.98 0 0 1 -3.555-.32zm5.415 93.173c14.774-6.083 23.081 15.622 8.112 21.016a17.466 17.466 0 0 0 -10.756-4.3 19.478 19.478 0 0 0 -.588-14.457c.2-.2.409-.406.627-.594a19.281 19.281 0 0 0 2.605-1.665zm39.5 7.372c8.906 6.09 4.475 20.339-6.36 20.307a11.21 11.21 0 0 1 -11.1-10.107 18.463 18.463 0 0 0 1.5-7.54 18.788 18.788 0 0 0 15.96-2.66zm-75.2 29.146a10.088 10.088 0 0 1 5.534-8.982 19.039 19.039 0 0 0 9.8 2.22 17.455 17.455 0 0 0 2.021 13.677c-6.048 6.591-17.462 2.053-17.353-6.915zm42.356-2.274c-.424 13.3-19.707 13.3-20.128 0 .425-13.297 19.708-13.297 20.13.003zm-14.445 34.052c-10.52 0-14.2-14.158-5.077-19.277a17.578 17.578 0 0 0 13.019 2.425c5.573 6.46.599 17.018-7.942 16.852zm15.126-20.188a17.615 17.615 0 0 0 6.443-17.479 10.323 10.323 0 0 1 11.209 10.262c.115 9.105-11.414 13.782-17.652 7.217zm-18.348-44.5c5.318 7.706-.634 18.87-10.063 18.684a12.071 12.071 0 0 1 -12.058-12.058c-.01-11.927 15.715-16.487 22.121-6.627zm-24.329-24.3a10.443 10.443 0 0 1 4.406.972 19.525 19.525 0 0 0 1.384 12.352 19.66 19.66 0 0 0 -8.2 7.427c-11.992-2.993-10.049-20.512 2.41-20.748zm-8.14 27.548a10.07 10.07 0 0 1 3.083.5 19.422 19.422 0 0 0 4.138 15.173 17.634 17.634 0 0 0 -3.671 3.8 10.06 10.06 0 1 1 -3.55-19.471zm-4.235 46.032c-11.706-.144-13.812-16.665-2.588-19.784a17 17 0 0 0 7.239 1.358 17.39 17.39 0 0 0 2.645 11.5 17.964 17.964 0 0 0 -6.547 6.886c-.249.02-.498.043-.749.043zm6.131 8.34a10.354 10.354 0 0 1 6.863-9.711 17.313 17.313 0 0 0 9.558 2.547 17.83 17.83 0 0 0 2.217 13.22c-5.667 8.024-18.735 3.804-18.638-6.053zm39.246 34.289c-11.166-.07-14.231-15.407-4.009-19.8a17.683 17.683 0 0 0 4.077-.813c13.577.521 13.506 20.191-.068 20.616zm30.216-26.083a10.355 10.355 0 0 1 -13.458 9.812 17.876 17.876 0 0 0 -8.571-9.832 17.722 17.722 0 0 0 4.164-11.341c4.036 1.431 9.491-.628 13.115 1.471a18.615 18.615 0 0 0 1.756 1.229c1.93 1.851 2.994 4.927 2.994 8.664zm17.971-24.513c.215 8.367-9.582 14-16.692 9.655a14.769 14.769 0 0 0 -1.757-1.248 17.844 17.844 0 0 0 4.1-18.232 18.328 18.328 0 0 0 6.9-.689 11.111 11.111 0 0 1 7.449 10.517zm-5.81-52.945a11.313 11.313 0 0 1 -11.3 11.3c-14.957-.531-14.953-22.072 0-22.6a11.313 11.313 0 0 1 11.3 11.303zm-30.474-36.6c17.681.979 14.909 26.644-2.548 23.836a19.63 19.63 0 0 0 -9.5-11.993 12.066 12.066 0 0 1 12.048-11.841zm-9.327 29.023a12.023 12.023 0 0 1 -4.257 9.2 18.771 18.771 0 0 0 -2.647 1.7 11.868 11.868 0 0 1 -1.246.51 19.294 19.294 0 0 0 -14.162-5.082c-5.025-7.671 1.049-18.629 10.258-18.384a12.072 12.072 0 0 1 12.054 12.058zm-30.786-50.166c4.19-3.682 9.452-3.014 9.774 1.615.028 2.4-2.028 5-2.968 5.964a11.387 11.387 0 0 1 -10.3 1.988 10.47 10.47 0 0 1 3.494-9.567zm-44.85-34.465c15.852 1.154 18.653 13.844 18.767 14.4a3.765 3.765 0 0 0 7.222.532c1.845-5.27 4.523-7.752 6.438-8.906 3.815 8.264 3.765 17.779-7.294 25.259a61 61 0 0 1 -4.692-6.618 3.75 3.75 0 0 0 -5.137-1.31c-4.162 3.289-.6 6.18 3.234 11.679a14.719 14.719 0 0 1 -17.9-3.9c4.391-3.7 7.209-4.1 7.727-4.138 4.4.644 5.782-5.625 1.693-7.22-9.668-3.95-10.367-14.478-10.058-19.778z"/><path d="m341.371 262.887c4.193 2.207 15.3 9.913 16.326 18.954a3.75 3.75 0 1 0 7.453-.847c-1.681-14.792-19.527-24.345-20.286-24.744-4.394-2.218-7.82 4.262-3.493 6.637z"/><path d="m326.007 295.77a18.405 18.405 0 0 0 .281-11.209c-2.408-8.058.8-16.525.836-16.61 1.713-4.611-5.105-7.289-6.983-2.735-.167.424-3.92 10.172-1.347 20.365a52.518 52.518 0 0 1 -14.024-.45c-4.828-.944-6.368 6.217-1.568 7.334.128.35 11.852 1.32 15.784.621a30.161 30.161 0 0 0 2.275 25.108 3.75 3.75 0 1 0 6.511-3.722 22.381 22.381 0 0 1 -1.765-18.702z"/><path d="m333.054 290.2c-.325 4.725 5.193 4.343 8.516 4.375 3.7-.4 11.738.971 11.288-4.845a3.749 3.749 0 0 0 -4.248-3.175 46.677 46.677 0 0 1 -11.441.3 3.75 3.75 0 0 0 -4.115 3.345z"/><path d="m319.556 109.587-6.889-.873a3.75 3.75 0 1 0 -.943 7.441l6.89.873a3.839 3.839 0 0 0 .476.03c4.61-.038 5.072-6.841.466-7.471z"/><path d="m337.457 117.058a3.827 3.827 0 0 0 .476-.03l6.89-.873c4.879-.7 3.956-7.975-.943-7.441l-6.889.873c-4.603.63-4.146 7.433.466 7.471z"/><path d="m287.129 243.179c3.271-.1 7.9.962 8.213-3.751a3.749 3.749 0 0 0 -3.75-3.749h-4.463c-4.929.083-4.929 7.421 0 7.5z"/><path d="m362.76 240.539c3.271-.1 7.9.963 8.214-3.75a3.749 3.749 0 0 0 -3.75-3.75h-4.464c-4.928.083-4.929 7.417 0 7.5z"/><path d="m233.771 317.942c5.379-.092 5.378-8.094 0-8.185-5.38.092-5.379 8.094 0 8.185z"/><path d="m409.082 258.212c5.38-.092 5.379-8.094 0-8.185-5.382.092-5.382 8.094 0 8.185z"/></g></svg>