<?xml version="1.0" encoding="UTF-8" standalone="no"?>
<!DOCTYPE svg PUBLIC "-//W3C//DTD SVG 1.1//EN" "http://www.w3.org/Graphics/SVG/1.1/DTD/svg11.dtd">
<svg width="100%" height="100%" viewBox="0 0 1000 1000" version="1.1" xmlns="http://www.w3.org/2000/svg" xmlns:xlink="http://www.w3.org/1999/xlink" xml:space="preserve" xmlns:serif="http://www.serif.com/" style="fill-rule:evenodd;clip-rule:evenodd;stroke-linecap:round;stroke-linejoin:round;stroke-miterlimit:1.5;">
    <g transform="matrix(1.02316,5.19634e-17,-5.19634e-17,1.02316,-143.039,21.2179)">
        <circle cx="531.13" cy="570.924" r="344.994" style="fill:none;stroke:rgb(135,131,125);stroke-width:24.6px;"/>
    </g>
    <g transform="matrix(0.247662,0.13239,-0.26478,0.495324,403.726,298.267)">
        <path d="M847.3,212.1C847.3,144.4 832.2,77.5 803.6,18.5L799.4,10L200.6,10L196.5,18.5C167.9,77.5 152.8,144.4 152.8,212.1C152.8,422.9 301.6,600.8 484.9,609.9L484.9,959.8L351.6,959.8L351.6,990L661.9,990L661.9,959.8L515.1,959.8L515.1,609.9C698.5,600.8 847.3,422.8 847.3,212.1ZM780.3,40.2C796.8,76.3 807.8,115.2 813.2,156.1C781.5,168.1 681.9,203.3 611.1,203.3C588.4,203.3 570.7,199.7 558.5,192.6C547.3,186 541.2,176.7 539.4,163.1C536.7,142 526,125.6 507.5,114.2C488.6,102.6 461,96.7 425.3,96.7C342.7,96.7 235.1,128.1 188.7,142.9C194.7,106.6 205,72.1 219.6,40.2L780.3,40.2Z" style="fill:rgb(167,30,91);fill-rule:nonzero;stroke:rgb(135,131,125);stroke-width:48.1px;stroke-linecap:butt;stroke-miterlimit:2;"/>
    </g>
</svg>
